<?xml version="1.0" standalone="no"?><!DOCTYPE svg PUBLIC "-//W3C//DTD SVG 1.1//EN" "http://www.w3.org/Graphics/SVG/1.1/DTD/svg11.dtd"><svg t="1787943803824" class="icon" viewBox="0 0 1024 1024" version="1.1" xmlns="http://www.w3.org/2000/svg" p-id="43572" width="16" height="16" xmlns:xlink="http://www.w3.org/1999/xlink"><path d="M737.9 400.7v-225c0-20.7-16.8-37.5-37.5-37.5H227.2c-20.7 0-37.5 16.8-37.5 37.5v615.2c0 20.7 16.8 37.5 37.5 37.5h473.2c20.7 0 37.5-16.8 37.5-37.5V772c0-18 14.6-32.6 32.6-32.6s32.6 14.6 32.6 32.6v18.9c0 56.7-46.1 102.7-102.7 102.7H657v24c0 18-14.6 32.6-32.6 32.6s-32.6-14.6-32.6-32.6v-24H334.1v24c0 18-14.6 32.6-32.6 32.6s-32.6-14.6-32.6-32.6v-24h-41.8c-56.7 0-102.8-46.1-102.8-102.7V175.7c0-56.7 46.1-102.8 102.8-102.8h473.2C757 72.9 803 119 803 175.7v225.1c0 18-14.6 32.6-32.6 32.6-17.9-0.1-32.5-14.7-32.5-32.7z" fill="#ffffff" p-id="43573"></path><path d="M369.3 449.8c-78.6 0-142.5-63.9-142.5-142.5s63.9-142.5 142.5-142.5 142.5 63.9 142.5 142.5-63.9 142.5-142.5 142.5z m0-219.7c-42.6 0-77.3 34.7-77.3 77.3 0 42.6 34.7 77.3 77.3 77.3 42.6 0 77.3-34.7 77.3-77.3 0-42.7-34.7-77.3-77.3-77.3zM883.5 593.4c-5.2 3.1-11 4.6-16.6 4.6-11.1 0-22-5.7-28.1-16-9.3-15.4-35.8-48.3-58.3-50.8-3.5-0.4-12.6-1.4-26.4 12.8-33.7 37.9-70.5 55.5-109.4 52.4-64.3-5.2-104.2-66.1-108.6-73-9.6-15.3-5-35.4 10.3-44.9 15.2-9.6 35.3-5 44.9 10.2 7.2 11.2 31.8 40.7 58.9 42.8 17.4 1.4 36.1-9.1 55.5-31.1l0.9-1c30.1-31.5 60.9-35.3 81.4-32.9 60.6 6.9 102.4 74.6 106.9 82.3 9.2 15.4 4.1 35.4-11.4 44.6z" fill="#ffffff" p-id="43574"></path><path d="M883.5 725.4c-5.2 3.1-11 4.6-16.6 4.6-11.1 0-22-5.7-28.1-16-9.3-15.4-35.8-48.3-58.3-50.8-3.5-0.4-12.6-1.4-26.4 12.8-33.7 37.9-70.5 55.5-109.4 52.4-64.3-5.2-104.2-66.1-108.6-73.1-9.6-15.3-5-35.4 10.3-44.9 15.2-9.5 35.3-5 44.9 10.2 7.2 11.2 31.7 40.7 58.9 42.8 17.4 1.4 36.1-9.1 55.5-31.1 0.3-0.3 0.6-0.7 0.9-1 30.1-31.5 60.9-35.3 81.4-32.9 60.6 6.9 102.3 74.6 106.9 82.3 9.2 15.6 4.1 35.6-11.4 44.7z" fill="#ffffff" p-id="43575"></path></svg>