<?xml version="1.0" standalone="no"?><!DOCTYPE svg PUBLIC "-//W3C//DTD SVG 1.1//EN" "http://www.w3.org/Graphics/SVG/1.1/DTD/svg11.dtd"><svg t="1787591528788" class="icon" viewBox="0 0 1024 1024" version="1.1" xmlns="http://www.w3.org/2000/svg" p-id="8571" xmlns:xlink="http://www.w3.org/1999/xlink" width="16" height="16"><path d="M512 959.8c-44.9 0-88.4-8.8-129.4-26.1C343 917 307.4 893 276.9 862.5s-54.5-66.1-71.2-105.7c-17.3-41-26.1-84.6-26.1-129.4 0-43 13.6-98.5 40.5-165 22.6-55.7 53.8-117.5 90.4-178.5 33.9-56.6 70.2-109 102.4-147.4 17-20.3 32.5-36.4 46.1-47.9 19.8-16.6 36.7-24.4 53.1-24.4s33.3 7.7 53.1 24.4c13.6 11.5 29.1 27.6 46.1 47.9 32.1 38.5 68.5 90.8 102.4 147.4 36.6 61.1 67.8 122.8 90.4 178.5 26.9 66.4 40.5 121.9 40.5 165 0 44.9-8.8 88.4-26.1 129.4-16.7 39.6-40.7 75.1-71.2 105.7S681 917 641.4 933.7c-41 17.3-84.5 26.1-129.4 26.1z m0-821.4c-7.8 5.4-25.1 20.1-54.8 57.4-29.7 37.5-62.8 86.7-92.9 138.3-32.8 56.1-60.5 112.1-80.2 161.9-21.3 54-32.6 99.4-32.6 131.3 0 143.6 116.8 260.5 260.5 260.5S772.5 771 772.5 627.4c0-31.9-11.3-77.3-32.6-131.3-19.7-49.8-47.4-105.8-80.2-161.9-30.2-51.7-63.2-100.8-92.9-138.3-29.7-37.4-47-52.1-54.8-57.5z" fill="#ffffff" p-id="8572"></path><path d="M521.9 837.1c-59.5 0-115.4-23.2-157.5-65.2-42.1-42.1-65.2-98-65.2-157.5 0-19.9 16.1-36 36-36s36 16.1 36 36c0 83.1 67.6 150.7 150.7 150.7 19.9 0 36 16.1 36 36s-16.1 36-36 36z" fill="#ffffff" p-id="8573"></path></svg>